<svg width="427" height="74" viewBox="0 0 427 74" fill="none" xmlns="http://www.w3.org/2000/svg">
<rect y="6" width="10" height="65" fill="black"/>
<path d="M9.99999 6L50.7264 30.1879L46.7552 36.2224L9.99999 13L9.99999 6Z" fill="black"/>
<path d="M10.1966 44L39 30.5L47.6851 36.2722L10.1966 53.7136L10.1966 44Z" fill="black"/>
<rect x="65" y="19" width="14" height="52" fill="black"/>
<rect x="66" width="13" height="12" fill="black"/>
<rect x="106.881" y="5.10233" width="12.251" height="65" transform="rotate(8.47264 106.881 5.10233)" fill="black"/>
<path d="M119.001 8L155.85 34.7725L151.421 40.6886L117.5 17L119.001 8Z" fill="black"/>
<path d="M115 38.5L146 37L151 40.5L113 43.5L115 38.5Z" fill="black"/>
<path d="M113.5 43.5H122L149 67.5L139.5 70.5L113.5 43.5Z" fill="black"/>
<path d="M195 4.5L204 7L178 70H168L195 4.5Z" fill="black"/>
<path d="M199 17.5L204 7L213 70H204L199 17.5Z" fill="black"/>
<path d="M186 48L202 45.5V53H184L186 48Z" fill="black"/>
<rect x="238" y="20" width="12" height="50" fill="black"/>
<rect x="213" y="5" width="66" height="15" fill="black"/>
<rect x="288" y="4" width="15" height="66" fill="black"/>
<rect x="303" y="4" width="39" height="4" fill="black"/>
<rect x="303" y="27" width="44" height="13" fill="black"/>
<rect x="303" y="57" width="41" height="13" fill="black"/>
<rect x="363" y="1" width="64" height="11" fill="black"/>
<rect x="363" y="12" width="9" height="22" fill="black"/>
<rect x="363" y="33" width="64" height="7" fill="black"/>
<rect x="416" y="40" width="11" height="34" fill="black"/>
<rect x="366" y="66" width="50" height="8" fill="black"/>
</svg>
